<mxfile host="app.diagrams.net" modified="2023-11-30T08:38:12.005Z" agent="Mozilla/5.0 (Windows NT 10.0; Win64; x64) AppleWebKit/537.36 (KHTML, like Gecko) Chrome/119.0.0.0 Safari/537.36 Edg/119.0.0.0" etag="dhXBdbc4U9KkMnj9ipAo" version="22.1.5" type="device">
  <diagram name="Page-1" id="2YBvvXClWsGukQMizWep">
    <mxGraphModel dx="1149" dy="654" grid="1" gridSize="10" guides="1" tooltips="1" connect="1" arrows="1" fold="1" page="1" pageScale="1" pageWidth="850" pageHeight="1100" math="0" shadow="0">
      <root>
        <mxCell id="0" />
        <mxCell id="1" parent="0" />
        <mxCell id="6edG7wf6cPbxveXi7l1f-1" value="Käyttäjän selain" style="shape=umlLifeline;perimeter=lifelinePerimeter;whiteSpace=wrap;html=1;container=1;dropTarget=0;collapsible=0;recursiveResize=0;outlineConnect=0;portConstraint=eastwest;newEdgeStyle={&quot;curved&quot;:0,&quot;rounded&quot;:0};" vertex="1" parent="1">
          <mxGeometry x="210" y="70" width="100" height="530" as="geometry" />
        </mxCell>
        <mxCell id="6edG7wf6cPbxveXi7l1f-4" value="" style="html=1;points=[[0,0,0,0,5],[0,1,0,0,-5],[1,0,0,0,5],[1,1,0,0,-5]];perimeter=orthogonalPerimeter;outlineConnect=0;targetShapes=umlLifeline;portConstraint=eastwest;newEdgeStyle={&quot;curved&quot;:0,&quot;rounded&quot;:0};" vertex="1" parent="6edG7wf6cPbxveXi7l1f-1">
          <mxGeometry x="45" y="110" width="10" height="360" as="geometry" />
        </mxCell>
        <mxCell id="6edG7wf6cPbxveXi7l1f-17" value="" style="shape=umlDestroy;whiteSpace=wrap;html=1;strokeWidth=3;targetShapes=umlLifeline;" vertex="1" parent="6edG7wf6cPbxveXi7l1f-1">
          <mxGeometry x="35" y="520" width="30" height="30" as="geometry" />
        </mxCell>
        <mxCell id="6edG7wf6cPbxveXi7l1f-2" value="Käyttäjä" style="shape=umlActor;verticalLabelPosition=bottom;verticalAlign=top;html=1;" vertex="1" parent="1">
          <mxGeometry x="140" y="130" width="30" height="60" as="geometry" />
        </mxCell>
        <mxCell id="6edG7wf6cPbxveXi7l1f-3" value="Lataa sivu" style="html=1;verticalAlign=bottom;endArrow=block;curved=0;rounded=0;" edge="1" parent="1" target="6edG7wf6cPbxveXi7l1f-4">
          <mxGeometry width="80" relative="1" as="geometry">
            <mxPoint x="170" y="190" as="sourcePoint" />
            <mxPoint x="250" y="190" as="targetPoint" />
          </mxGeometry>
        </mxCell>
        <mxCell id="6edG7wf6cPbxveXi7l1f-5" value="Apache" style="shape=umlLifeline;perimeter=lifelinePerimeter;whiteSpace=wrap;html=1;container=1;dropTarget=0;collapsible=0;recursiveResize=0;outlineConnect=0;portConstraint=eastwest;newEdgeStyle={&quot;curved&quot;:0,&quot;rounded&quot;:0};" vertex="1" parent="1">
          <mxGeometry x="375" y="70" width="100" height="530" as="geometry" />
        </mxCell>
        <mxCell id="6edG7wf6cPbxveXi7l1f-6" value="" style="html=1;points=[[0,0,0,0,5],[0,1,0,0,-5],[1,0,0,0,5],[1,1,0,0,-5]];perimeter=orthogonalPerimeter;outlineConnect=0;targetShapes=umlLifeline;portConstraint=eastwest;newEdgeStyle={&quot;curved&quot;:0,&quot;rounded&quot;:0};" vertex="1" parent="6edG7wf6cPbxveXi7l1f-5">
          <mxGeometry x="45" y="140" width="10" height="80" as="geometry" />
        </mxCell>
        <mxCell id="6edG7wf6cPbxveXi7l1f-9" value="" style="html=1;points=[[0,0,0,0,5],[0,1,0,0,-5],[1,0,0,0,5],[1,1,0,0,-5]];perimeter=orthogonalPerimeter;outlineConnect=0;targetShapes=umlLifeline;portConstraint=eastwest;newEdgeStyle={&quot;curved&quot;:0,&quot;rounded&quot;:0};" vertex="1" parent="6edG7wf6cPbxveXi7l1f-5">
          <mxGeometry x="45" y="270" width="10" height="200" as="geometry" />
        </mxCell>
        <mxCell id="6edG7wf6cPbxveXi7l1f-18" value="" style="shape=umlDestroy;whiteSpace=wrap;html=1;strokeWidth=3;targetShapes=umlLifeline;" vertex="1" parent="6edG7wf6cPbxveXi7l1f-5">
          <mxGeometry x="35" y="520" width="30" height="30" as="geometry" />
        </mxCell>
        <mxCell id="6edG7wf6cPbxveXi7l1f-7" value="Sivu pyyntö" style="html=1;verticalAlign=bottom;endArrow=block;curved=0;rounded=0;" edge="1" parent="1">
          <mxGeometry width="80" relative="1" as="geometry">
            <mxPoint x="265" y="219.76" as="sourcePoint" />
            <mxPoint x="420" y="219.76" as="targetPoint" />
          </mxGeometry>
        </mxCell>
        <mxCell id="6edG7wf6cPbxveXi7l1f-8" value="Sivun runko" style="html=1;verticalAlign=bottom;endArrow=open;dashed=1;endSize=8;curved=0;rounded=0;" edge="1" parent="1" target="6edG7wf6cPbxveXi7l1f-4">
          <mxGeometry relative="1" as="geometry">
            <mxPoint x="420" y="280" as="sourcePoint" />
            <mxPoint x="340" y="280" as="targetPoint" />
          </mxGeometry>
        </mxCell>
        <mxCell id="6edG7wf6cPbxveXi7l1f-10" value="Lämpötilojen api kutsu" style="html=1;verticalAlign=bottom;endArrow=block;curved=0;rounded=0;" edge="1" parent="1">
          <mxGeometry width="80" relative="1" as="geometry">
            <mxPoint x="265" y="350" as="sourcePoint" />
            <mxPoint x="420" y="350" as="targetPoint" />
          </mxGeometry>
        </mxCell>
        <mxCell id="6edG7wf6cPbxveXi7l1f-11" value="MariaDB" style="shape=umlLifeline;perimeter=lifelinePerimeter;whiteSpace=wrap;html=1;container=1;dropTarget=0;collapsible=0;recursiveResize=0;outlineConnect=0;portConstraint=eastwest;newEdgeStyle={&quot;curved&quot;:0,&quot;rounded&quot;:0};" vertex="1" parent="1">
          <mxGeometry x="530" y="70" width="100" height="460" as="geometry" />
        </mxCell>
        <mxCell id="6edG7wf6cPbxveXi7l1f-12" value="" style="html=1;points=[[0,0,0,0,5],[0,1,0,0,-5],[1,0,0,0,5],[1,1,0,0,-5]];perimeter=orthogonalPerimeter;outlineConnect=0;targetShapes=umlLifeline;portConstraint=eastwest;newEdgeStyle={&quot;curved&quot;:0,&quot;rounded&quot;:0};" vertex="1" parent="6edG7wf6cPbxveXi7l1f-11">
          <mxGeometry x="45" y="330" width="10" height="80" as="geometry" />
        </mxCell>
        <mxCell id="6edG7wf6cPbxveXi7l1f-15" value="" style="shape=umlDestroy;whiteSpace=wrap;html=1;strokeWidth=3;targetShapes=umlLifeline;" vertex="1" parent="6edG7wf6cPbxveXi7l1f-11">
          <mxGeometry x="35" y="450" width="30" height="30" as="geometry" />
        </mxCell>
        <mxCell id="6edG7wf6cPbxveXi7l1f-13" value="Sql kysely" style="html=1;verticalAlign=bottom;endArrow=block;curved=0;rounded=0;" edge="1" parent="1" target="6edG7wf6cPbxveXi7l1f-12">
          <mxGeometry width="80" relative="1" as="geometry">
            <mxPoint x="430" y="410" as="sourcePoint" />
            <mxPoint x="510" y="410" as="targetPoint" />
          </mxGeometry>
        </mxCell>
        <mxCell id="6edG7wf6cPbxveXi7l1f-14" value="Lämpötilat" style="html=1;verticalAlign=bottom;endArrow=open;dashed=1;endSize=8;curved=0;rounded=0;" edge="1" parent="1">
          <mxGeometry relative="1" as="geometry">
            <mxPoint x="575" y="460.0000000000001" as="sourcePoint" />
            <mxPoint x="430" y="460.0000000000001" as="targetPoint" />
          </mxGeometry>
        </mxCell>
        <mxCell id="6edG7wf6cPbxveXi7l1f-16" value="Lämpötilat" style="html=1;verticalAlign=bottom;endArrow=open;dashed=1;endSize=8;curved=0;rounded=0;" edge="1" parent="1" target="6edG7wf6cPbxveXi7l1f-4">
          <mxGeometry x="-0.0033" relative="1" as="geometry">
            <mxPoint x="420" y="530" as="sourcePoint" />
            <mxPoint x="340" y="530" as="targetPoint" />
            <mxPoint as="offset" />
          </mxGeometry>
        </mxCell>
      </root>
    </mxGraphModel>
  </diagram>
</mxfile>
